REM DIRINDEX 1\2,1\3,1\4
REM DIRNAME folder01,folder02,folder03,folder04
TITLE ""
FILE "101 101_TOEFL_3900.mp3" MP3
  TRACK 01 AUDIO
    TITLE "2:cjc151_4399"
    INDEX 01 00:00:00
  TRACK 02 AUDIO
    TITLE "0:"
    INDEX 01 00:01:09
  TRACK 03 AUDIO
    TITLE "3:cjc151_4400"
    INDEX 01 00:02:63
  TRACK 04 AUDIO
    TITLE "0:"
    INDEX 01 00:06:14
  TRACK 05 AUDIO
    TITLE "2:cjc151_4401"
    INDEX 01 00:07:68
  TRACK 06 AUDIO
    TITLE "0:"
    INDEX 01 00:09:04
  TRACK 07 AUDIO
    TITLE "3:cjc151_4402"
    INDEX 01 00:10:65
  TRACK 08 AUDIO
    TITLE "0:"
    INDEX 01 00:14:35
  TRACK 09 AUDIO
    TITLE "2:cjc151_4403"
    INDEX 01 00:16:16
  TRACK 10 AUDIO
    TITLE "0:"
    INDEX 01 00:17:27
  TRACK 11 AUDIO
    TITLE "3:cjc151_4404"
    INDEX 01 00:19:05
  TRACK 12 AUDIO
    TITLE "0:"
    INDEX 01 00:22:46
  TRACK 13 AUDIO
    TITLE "2:cjc151_4405"
    INDEX 01 00:24:25
  TRACK 14 AUDIO
    TITLE "0:"
    INDEX 01 00:25:19
  TRACK 15 AUDIO
    TITLE "3:cjc151_4406"
    INDEX 01 00:26:67
  TRACK 16 AUDIO
    TITLE "0:"
    INDEX 01 00:30:69
  TRACK 17 AUDIO
    TITLE "2:cjc151_4407"
    INDEX 01 00:32:48
  TRACK 18 AUDIO
    TITLE "0:"
    INDEX 01 00:33:58
  TRACK 19 AUDIO
    TITLE "3:cjc151_4408"
    INDEX 01 00:35:37
  TRACK 20 AUDIO
    TITLE "0:"
    INDEX 01 00:39:19
  TRACK 21 AUDIO
    TITLE "2:cjc151_4409"
    INDEX 01 00:40:73
  TRACK 22 AUDIO
    TITLE "0:"
    INDEX 01 00:42:00
  TRACK 23 AUDIO
    TITLE "3:cjc151_4410"
    INDEX 01 00:43:52
  TRACK 24 AUDIO
    TITLE "0:"
    INDEX 01 00:46:56
  TRACK 25 AUDIO
    TITLE "2:cjc151_4411"
    INDEX 01 00:48:36
  TRACK 26 AUDIO
    TITLE "0:"
    INDEX 01 00:49:57
  TRACK 27 AUDIO
    TITLE "3:cjc151_4412"
    INDEX 01 00:51:34
  TRACK 28 AUDIO
    TITLE "0:"
    INDEX 01 00:55:06
  TRACK 29 AUDIO
    TITLE "2:cjc151_4413"
    INDEX 01 00:56:61
  TRACK 30 AUDIO
    TITLE "0:"
    INDEX 01 00:57:68
  TRACK 31 AUDIO
    TITLE "3:cjc151_4414"
    INDEX 01 00:59:47
  TRACK 32 AUDIO
    TITLE "0:"
    INDEX 01 01:02:73
  TRACK 33 AUDIO
    TITLE "2:cjc151_4415"
    INDEX 01 01:04:52
  TRACK 34 AUDIO
    TITLE "0:"
    INDEX 01 01:05:58
  TRACK 35 AUDIO
    TITLE "3:cjc151_4416"
    INDEX 01 01:07:37
  TRACK 36 AUDIO
    TITLE "0:"
    INDEX 01 01:11:19
  TRACK 37 AUDIO
    TITLE "2:cjc151_4417"
    INDEX 01 01:13:00
  TRACK 38 AUDIO
    TITLE "0:"
    INDEX 01 01:14:43
  TRACK 39 AUDIO
    TITLE "3:cjc151_4418"
    INDEX 01 01:16:22
  TRACK 40 AUDIO
    TITLE "0:"
    INDEX 01 01:20:08
  TRACK 41 AUDIO
    TITLE "2:cjc151_4419"
    INDEX 01 01:21:63
  TRACK 42 AUDIO
    TITLE "0:"
    INDEX 01 01:22:64
  TRACK 43 AUDIO
    TITLE "3:cjc151_4420"
    INDEX 01 01:24:43
  TRACK 44 AUDIO
    TITLE "0:"
    INDEX 01 01:28:63
  TRACK 45 AUDIO
    TITLE "2:cjc151_4421"
    INDEX 01 01:30:42
  TRACK 46 AUDIO
    TITLE "0:"
    INDEX 01 01:31:47
  TRACK 47 AUDIO
    TITLE "3:cjc151_4422"
    INDEX 01 01:33:29
  TRACK 48 AUDIO
    TITLE "0:"
    INDEX 01 01:37:48
  TRACK 49 AUDIO
    TITLE "2:cjc151_4423"
    INDEX 01 01:39:27
  TRACK 50 AUDIO
    TITLE "0:"
    INDEX 01 01:40:40
  TRACK 51 AUDIO
    TITLE "3:cjc151_4424"
    INDEX 01 01:42:20
  TRACK 52 AUDIO
    TITLE "0:"
    INDEX 01 01:45:44
  TRACK 53 AUDIO
    TITLE "2:cjc151_4425"
    INDEX 01 01:47:23
  TRACK 54 AUDIO
    TITLE "0:"
    INDEX 01 01:48:32
  TRACK 55 AUDIO
    TITLE "3:cjc151_4426"
    INDEX 01 01:50:13
  TRACK 56 AUDIO
    TITLE "0:"
    INDEX 01 01:53:35
  TRACK 57 AUDIO
    TITLE "2:cjc151_4427"
    INDEX 01 01:55:15
  TRACK 58 AUDIO
    TITLE "0:"
    INDEX 01 01:56:22
  TRACK 59 AUDIO
    TITLE "3:cjc151_4428"
    INDEX 01 01:57:68
  TRACK 60 AUDIO
    TITLE "0:"
    INDEX 01 02:01:56
  TRACK 61 AUDIO
    TITLE "2:cjc151_4429"
    INDEX 01 02:03:38
  TRACK 62 AUDIO
    TITLE "0:"
    INDEX 01 02:04:47
  TRACK 63 AUDIO
    TITLE "3:cjc151_4430"
    INDEX 01 02:06:22
  TRACK 64 AUDIO
    TITLE "0:"
    INDEX 01 02:09:50
  TRACK 65 AUDIO
    TITLE "2:cjc151_4431"
    INDEX 01 02:11:29
  TRACK 66 AUDIO
    TITLE "0:"
    INDEX 01 02:12:33
  TRACK 67 AUDIO
    TITLE "3:cjc151_4432"
    INDEX 01 02:14:08
  TRACK 68 AUDIO
    TITLE "0:"
    INDEX 01 02:16:60
  TRACK 69 AUDIO
    TITLE "2:cjc151_4433"
    INDEX 01 02:18:41
  TRACK 70 AUDIO
    TITLE "0:"
    INDEX 01 02:19:56
  TRACK 71 AUDIO
    TITLE "3:cjc151_4434"
    INDEX 01 02:21:37
  TRACK 72 AUDIO
    TITLE "0:"
    INDEX 01 02:24:59
  TRACK 73 AUDIO
    TITLE "2:cjc151_4435"
    INDEX 01 02:26:41
  TRACK 74 AUDIO
    TITLE "0:"
    INDEX 01 02:27:38
  TRACK 75 AUDIO
    TITLE "3:cjc151_4436"
    INDEX 01 02:29:15
  TRACK 76 AUDIO
    TITLE "0:"
    INDEX 01 02:32:49
  TRACK 77 AUDIO
    TITLE "2:cjc151_4437"
    INDEX 01 02:34:28
  TRACK 78 AUDIO
    TITLE "0:"
    INDEX 01 02:35:39
  TRACK 79 AUDIO
    TITLE "3:cjc151_4438"
    INDEX 01 02:37:19
  TRACK 80 AUDIO
    TITLE "0:"
    INDEX 01 02:40:29
  TRACK 81 AUDIO
    TITLE "2:cjc151_4439"
    INDEX 01 02:42:08
  TRACK 82 AUDIO
    TITLE "0:"
    INDEX 01 02:43:06
  TRACK 83 AUDIO
    TITLE "3:cjc151_4440"
    INDEX 01 02:44:60
  TRACK 84 AUDIO
    TITLE "0:"
    INDEX 01 02:47:19
  TRACK 85 AUDIO
    TITLE "2:cjc151_4441"
    INDEX 01 02:48:73
  TRACK 86 AUDIO
    TITLE "0:"
    INDEX 01 02:49:73
  TRACK 87 AUDIO
    TITLE "3:cjc151_4442"
    INDEX 01 02:51:50
  TRACK 88 AUDIO
    TITLE "0:"
    INDEX 01 02:54:74
